<svg width="16" height="10" viewBox="0 0 16 10" fill="none" xmlns="http://www.w3.org/2000/svg">
<path d="M8 0C3 0 0 5 0 5C0 5 3 10 8 10C13 10 16 5 16 5C16 5 13 0 8 0ZM8 8C7.40666 8 6.82664 7.82405 6.33329 7.49441C5.83994 7.16477 5.45542 6.69623 5.22836 6.14805C5.0013 5.59987 4.94189 4.99667 5.05764 4.41473C5.1734 3.83279 5.45912 3.29824 5.87868 2.87868C6.29824 2.45912 6.83279 2.1734 7.41473 2.05764C7.99667 1.94189 8.59987 2.0013 9.14805 2.22836C9.69623 2.45542 10.1648 2.83994 10.4944 3.33329C10.8241 3.82664 11 4.40666 11 5C11 5.79565 10.6839 6.55871 10.1213 7.12132C9.55871 7.68393 8.79565 8 8 8Z" fill="#9EA3AA"/>
</svg>
