<svg width="16" height="14" viewBox="0 0 16 14" fill="none" xmlns="http://www.w3.org/2000/svg">
<path fill-rule="evenodd" clip-rule="evenodd" d="M13.5826 0L0.996094 12.5865L2.41031 14.0007L14.9968 1.41421L13.5826 0ZM2.42 9.75036L5 7.16036C4.99573 7.10711 4.99573 7.05361 5 7.00036C5 6.20471 5.31607 5.44165 5.87868 4.87904C6.44129 4.31643 7.20435 4.00036 8 4.00036H8.16L9.92 2.24036C9.29309 2.07757 8.64769 1.99689 8 2.00036C3 2.00036 0 7.00036 0 7.00036C0.669868 8.0289 1.48497 8.95515 2.42 9.75036ZM11.0001 6.84024L13.5801 4.25024C14.5151 5.04545 15.3302 5.9717 16.0001 7.00024C16.0001 7.00024 13.0001 12.0002 8.00008 12.0002C7.35239 12.0037 6.70699 11.923 6.08008 11.7602L7.84008 10.0002H8.00008C8.79573 10.0002 9.55879 9.68417 10.1214 9.12156C10.684 8.55896 11.0001 7.79589 11.0001 7.00024C11.0044 6.947 11.0044 6.89349 11.0001 6.84024Z" fill="#9EA3AA"/>
</svg>
