<svg width="150" height="26" viewBox="0 0 150 26" fill="none" xmlns="http://www.w3.org/2000/svg">
<path d="M16.6691 0.5H7.14711C3.19987 0.5 0 3.85892 0 8.00235V17.9976C0 22.1411 3.19987 25.5 7.14711 25.5H16.6691C20.6164 25.5 23.8162 22.1411 23.8162 17.9976V8.00235C23.8162 3.85892 20.6164 0.5 16.6691 0.5Z" fill="#0BCEA5"/>
<path d="M8.17971 19.5445C8.67391 19.5434 9.15668 19.3958 9.56703 19.1205C9.97737 18.8453 10.2969 18.4546 10.4852 17.9979C10.6735 17.5412 10.7222 17.0389 10.6251 16.5546C10.5279 16.0703 10.2894 15.6256 9.93952 15.2767C9.58965 14.9278 9.14418 14.6904 8.65939 14.5945C8.1746 14.4985 7.67224 14.5483 7.21576 14.7377C6.75929 14.927 6.36919 15.2472 6.09475 15.658C5.8203 16.0688 5.67383 16.5517 5.67383 17.0457C5.67383 17.3743 5.73868 17.6998 5.86469 18.0033C5.99069 18.3069 6.17537 18.5826 6.40814 18.8147C6.64091 19.0468 6.9172 19.2308 7.22119 19.356C7.52519 19.4812 7.85091 19.5453 8.17971 19.5445Z" fill="white"/>
<path d="M15.8809 19.5445C16.3753 19.5445 16.8587 19.398 17.2698 19.1234C17.6809 18.8488 18.0013 18.4586 18.1906 18.002C18.3798 17.5454 18.4293 17.0429 18.3328 16.5582C18.2364 16.0735 17.9983 15.6282 17.6486 15.2788C17.299 14.9293 16.8535 14.6913 16.3686 14.5949C15.8836 14.4985 15.381 14.548 14.9242 14.7371C14.4673 14.9262 14.0769 15.2465 13.8022 15.6574C13.5275 16.0684 13.3809 16.5515 13.3809 17.0457C13.3809 17.7084 13.6443 18.344 14.1131 18.8126C14.5819 19.2813 15.2178 19.5445 15.8809 19.5445Z" fill="white"/>
<path d="M8.17383 11.4502C8.66828 11.4502 9.15163 11.3036 9.56275 11.0289C9.97388 10.7542 10.2943 10.3637 10.4835 9.9069C10.6727 9.45009 10.7223 8.94742 10.6258 8.46247C10.5293 7.97752 10.2912 7.53206 9.94159 7.18243C9.59196 6.8328 9.1465 6.5947 8.66155 6.49823C8.1766 6.40177 7.67394 6.45128 7.21712 6.6405C6.7603 6.82972 6.36985 7.15015 6.09515 7.56127C5.82045 7.97239 5.67383 8.45574 5.67383 8.9502C5.67383 9.61324 5.93722 10.2491 6.40606 10.718C6.8749 11.1868 7.51078 11.4502 8.17383 11.4502Z" fill="white"/>
<path d="M31.5625 5.01562H36.6932V16.8101H43.5602V21.0081H31.5625V5.01562Z" fill="#555963"/>
<path d="M57.0084 18.2035H51.228L50.203 21.0081H44.9883L51.6425 5.01562H56.6836L63.3322 21.0081H58.0278L57.0084 18.2035ZM55.5969 14.323L54.1182 10.3073L52.6395 14.323H55.5969Z" fill="#555963"/>
<path d="M79.1227 14.1643C79.6238 14.8603 79.8846 15.7145 79.8621 16.5867C79.8804 17.2353 79.7346 17.8774 79.4394 18.4476C79.1442 19.0178 78.7102 19.4955 78.1817 19.8322C77.0615 20.6024 75.4875 21.0081 73.3983 21.0081H64.8789V5.01562H73.0062C75.0339 5.01562 76.5648 5.39584 77.5992 6.15627C78.0842 6.47998 78.4821 6.92887 78.7547 7.46003C79.0273 7.99119 79.1656 8.58687 79.1563 9.19013C79.1594 9.90326 78.9648 10.6019 78.5962 11.2009C78.208 11.8227 77.6631 12.3193 77.0223 12.6356C77.8468 12.9248 78.5755 13.4551 79.1227 14.1643ZM69.92 8.77856V11.1304H72.3061C73.4263 11.1304 73.9864 10.7365 73.9864 9.95448C73.9864 9.17249 73.4263 8.77856 72.3061 8.77856H69.92ZM74.6978 15.9693C74.6978 15.1285 74.1377 14.7111 73.0174 14.7111H69.9312V17.2216H73.0174C74.1321 17.2216 74.6978 16.8042 74.6978 15.9693Z" fill="#555963"/>
<path d="M88.1796 20.2904C86.9277 19.6247 85.8766 18.6069 85.1437 17.3506C84.4244 16.0345 84.0459 14.5435 84.0459 13.0262C84.0459 11.5088 84.4244 10.0179 85.1437 8.70173C85.875 7.44406 86.9265 6.42586 88.1796 5.76194C89.5212 5.038 91.0122 4.67247 92.5205 4.69774C93.8812 4.6735 95.2313 4.95412 96.4805 5.52088C97.6083 6.04155 98.5942 6.85002 99.3483 7.87271L96.1109 10.9125C95.7374 10.3456 95.2411 9.87988 94.6626 9.5538C94.0842 9.22771 93.4402 9.05053 92.7838 9.03687C92.3043 9.01413 91.8258 9.09944 91.3804 9.28706C90.935 9.47468 90.5331 9.76027 90.2016 10.1246C89.5224 10.9083 89.1643 11.9411 89.2046 12.9997C89.152 14.0677 89.5044 15.1141 90.1848 15.9101C90.5168 16.2734 90.9189 16.5579 91.3643 16.7445C91.8097 16.9311 92.2879 17.0154 92.7669 16.9919C93.4251 16.9814 94.0715 16.807 94.6528 16.4829C95.2342 16.1589 95.7339 15.6946 96.1109 15.1281L99.3483 18.162C98.5938 19.1843 97.6081 19.9927 96.4805 20.5138C95.2309 21.0786 93.8808 21.3572 92.5205 21.3311C91.0143 21.361 89.524 21.0037 88.1796 20.2904Z" fill="#555963"/>
<path d="M105.106 20.2781C103.833 19.5889 102.766 18.5451 102.02 17.2612C101.275 15.9773 100.881 14.5027 100.881 12.9992C100.881 11.4957 101.275 10.0212 102.02 8.73726C102.766 7.45334 103.833 6.40956 105.106 5.72029C106.48 5.0163 107.989 4.65039 109.517 4.65039C111.046 4.65039 112.555 5.0163 113.928 5.72029C115.201 6.40956 116.269 7.45334 117.014 8.73726C117.76 10.0212 118.154 11.4957 118.154 12.9992C118.154 14.5027 117.76 15.9773 117.014 17.2612C116.269 18.5451 115.201 19.5889 113.928 20.2781C112.555 20.9821 111.046 21.348 109.517 21.348C107.989 21.348 106.48 20.9821 105.106 20.2781ZM111.268 16.5035C111.78 16.1668 112.196 15.6915 112.472 15.1276C112.774 14.4692 112.931 13.7477 112.931 13.0169C112.931 12.286 112.774 11.5645 112.472 10.9061C112.191 10.3349 111.767 9.85509 111.245 9.51851C110.721 9.19543 110.125 9.02509 109.517 9.02509C108.91 9.02509 108.313 9.19543 107.789 9.51851C107.274 9.85334 106.852 10.3262 106.568 10.8884C106.267 11.5503 106.111 12.2745 106.111 13.008C106.111 13.7416 106.267 14.4658 106.568 15.1276C106.851 15.6988 107.275 16.1799 107.795 16.5211C108.32 16.8406 108.916 17.0089 109.523 17.0089C110.13 17.0089 110.726 16.8406 111.251 16.5211L111.268 16.5035Z" fill="#0BCEA5"/>
<path d="M119.697 5.01565H127.192C128.735 4.98473 130.266 5.31618 131.673 5.98579C132.915 6.58297 133.964 7.54739 134.692 8.76095C135.429 10.037 135.802 11.5082 135.767 13.0001C135.802 14.4939 135.429 15.967 134.692 17.2452C133.962 18.4574 132.914 19.4214 131.673 20.0204C130.265 20.6853 128.735 21.0146 127.192 20.9846H119.697V5.01565ZM126.979 16.7748C127.46 16.8002 127.941 16.7255 128.395 16.5549C128.849 16.3844 129.266 16.1215 129.623 15.7812C129.964 15.4141 130.228 14.9758 130.398 14.4947C130.568 14.0136 130.64 13.5004 130.608 12.9884C130.639 12.4765 130.566 11.9636 130.397 11.4826C130.227 11.0017 129.963 10.5633 129.623 10.1956C129.266 9.85529 128.849 9.59233 128.395 9.42181C127.941 9.25128 127.46 9.17655 126.979 9.20192H124.828V16.7866L126.979 16.7748Z" fill="#555963"/>
<path d="M150 16.9277V21.0081H137.375V5.01562H149.698V9.07842H142.416V10.9481H148.852V14.8287H142.416V16.9277H150Z" fill="#555963"/>
</svg>
