<svg width="101" height="24" viewBox="0 0 101 24" fill="none" xmlns="http://www.w3.org/2000/svg">
<path d="M16.7977 0H7.20226C3.22456 0 0 3.22456 0 7.20226V16.7977C0 20.7754 3.22456 24 7.20226 24H16.7977C20.7754 24 24 20.7754 24 16.7977V7.20226C24 3.22456 20.7754 0 16.7977 0Z" fill="#0BCEA5"/>
<path d="M8.1167 18.2821C8.59187 18.2821 9.05633 18.141 9.45118 17.8766C9.84604 17.6123 10.1535 17.2366 10.3345 16.7973C10.5156 16.358 10.5621 15.8748 10.4682 15.409C10.3742 14.9432 10.1441 14.5158 9.80689 14.181C9.4697 13.8462 9.04069 13.6191 8.57424 13.5284C8.1078 13.4378 7.62494 13.4877 7.18691 13.6719C6.74888 13.856 6.37539 14.1661 6.11384 14.5629C5.8523 14.9596 5.71448 15.425 5.71783 15.9002C5.7223 16.5335 5.97702 17.1393 6.42641 17.5855C6.87581 18.0317 7.48341 18.2821 8.1167 18.2821V18.2821Z" fill="white"/>
<path d="M15.8832 18.2821C16.3577 18.2821 16.8215 18.1414 17.216 17.8778C17.6105 17.6142 17.9179 17.2396 18.0995 16.8013C18.2811 16.3629 18.3286 15.8806 18.236 15.4152C18.1435 14.9499 17.915 14.5225 17.5795 14.187C17.244 13.8515 16.8166 13.623 16.3512 13.5305C15.8859 13.4379 15.4036 13.4854 14.9652 13.667C14.5269 13.8485 14.1522 14.156 13.8887 14.5505C13.6251 14.945 13.4844 15.4088 13.4844 15.8832C13.4844 16.5195 13.7371 17.1296 14.187 17.5795C14.6369 18.0294 15.247 18.2821 15.8832 18.2821Z" fill="white"/>
<path d="M8.11665 10.5209C8.59246 10.5221 9.0579 10.382 9.45406 10.1185C9.85022 9.85492 10.1593 9.47978 10.3422 9.04051C10.525 8.60124 10.5734 8.11761 10.4813 7.6508C10.3891 7.184 10.1606 6.75502 9.82454 6.41818C9.48849 6.08133 9.06007 5.85177 8.59348 5.75853C8.1269 5.6653 7.64313 5.71258 7.20343 5.89441C6.76373 6.07623 6.38786 6.38442 6.1234 6.77996C5.85894 7.1755 5.71778 7.64061 5.71778 8.11642C5.71704 8.43192 5.77853 8.74447 5.89875 9.03617C6.01897 9.32787 6.19557 9.59299 6.4184 9.81634C6.64123 10.0397 6.90592 10.2169 7.19733 10.3378C7.48875 10.4587 7.80115 10.5209 8.11665 10.5209V10.5209Z" fill="white"/>
<path d="M32 7.09654H34.6587V14.7045H39.1435V16.9042H32V7.09654Z" fill="#F0F1F2"/>
<path d="M46.5981 14.9987H42.6235L41.885 16.9042H39.1726L43.3217 7.09654H45.9401L50.1027 16.9042H47.3366L46.5981 14.9987ZM45.8193 12.9531L44.6108 9.81468L43.4023 12.9531H45.8193Z" fill="#F0F1F2"/>
<path d="M58.0806 11.7902C58.6177 11.9864 59.0384 12.2946 59.3428 12.715C59.6471 13.1259 59.7993 13.6257 59.7993 14.2141C59.7993 15.0735 59.4681 15.7367 58.8057 16.2037C58.1432 16.6707 57.1854 16.9042 55.9321 16.9042H50.8565V7.09654H55.6636C56.8631 7.09654 57.7762 7.33006 58.4028 7.79709C59.0295 8.25479 59.3428 8.87594 59.3428 9.66056C59.3428 10.1276 59.2309 10.5479 59.0071 10.9215C58.7922 11.2858 58.4834 11.5754 58.0806 11.7902ZM53.4883 9.10012V10.9916H55.3145C56.2096 10.9916 56.6572 10.674 56.6572 10.0389C56.6572 9.41303 56.2096 9.10012 55.3145 9.10012H53.4883ZM55.7173 14.9007C56.6483 14.9007 57.1138 14.5691 57.1138 13.9059C57.1138 13.2427 56.6483 12.9111 55.7173 12.9111H53.4883V14.9007H55.7173Z" fill="#F0F1F2"/>
<path d="M65.8626 17.1004C64.8779 17.1004 63.9917 16.8856 63.204 16.4559C62.4252 16.0169 61.812 15.4097 61.3644 14.6345C60.9168 13.8592 60.693 12.9812 60.693 12.0004C60.693 11.0196 60.9168 10.1416 61.3644 9.36632C61.812 8.59105 62.4252 7.98858 63.204 7.55891C63.9917 7.1199 64.8779 6.90039 65.8626 6.90039C66.722 6.90039 67.4964 7.05918 68.1856 7.37676C68.8749 7.69435 69.4478 8.15204 69.9044 8.74984L68.2125 10.3471C67.6038 9.58116 66.8652 9.19819 65.9969 9.19819C65.4867 9.19819 65.0301 9.31495 64.6273 9.54847C64.2334 9.78198 63.9246 10.1136 63.7008 10.5432C63.4859 10.9636 63.3785 11.4493 63.3785 12.0004C63.3785 12.5515 63.4859 13.0419 63.7008 13.4715C63.9246 13.8919 64.2334 14.2188 64.6273 14.4523C65.0301 14.6858 65.4867 14.8026 65.9969 14.8026C66.8652 14.8026 67.6038 14.4196 68.2125 13.6537L69.9044 15.2509C69.4478 15.8487 68.8749 16.3064 68.1856 16.624C67.4964 16.9416 66.722 17.1004 65.8626 17.1004Z" fill="#F0F1F2"/>
<path d="M75.6331 17.1004C74.6394 17.1004 73.7442 16.8809 72.9475 16.4419C72.1598 16.0029 71.5376 15.3957 71.0811 14.6204C70.6335 13.8452 70.4097 12.9718 70.4097 12.0004C70.4097 11.029 70.6335 10.1556 71.0811 9.38034C71.5376 8.60506 72.1598 7.99792 72.9475 7.55891C73.7442 7.1199 74.6394 6.90039 75.6331 6.90039C76.6267 6.90039 77.5174 7.1199 78.3052 7.55891C79.1019 7.99792 79.724 8.60506 80.1716 9.38034C80.6282 10.1556 80.8564 11.029 80.8564 12.0004C80.8564 12.9718 80.6282 13.8452 80.1716 14.6204C79.724 15.3957 79.1019 16.0029 78.3052 16.4419C77.5174 16.8809 76.6267 17.1004 75.6331 17.1004ZM75.6331 14.8026C76.1075 14.8026 76.5372 14.6858 76.9221 14.4523C77.3071 14.2188 77.6114 13.8919 77.8352 13.4715C78.059 13.0419 78.1709 12.5515 78.1709 12.0004C78.1709 11.4493 78.059 10.9636 77.8352 10.5432C77.6114 10.1136 77.3071 9.78198 76.9221 9.54847C76.5372 9.31495 76.1075 9.19819 75.6331 9.19819C75.1586 9.19819 74.7289 9.31495 74.344 9.54847C73.9591 9.78198 73.6547 10.1136 73.4309 10.5432C73.2071 10.9636 73.0952 11.4493 73.0952 12.0004C73.0952 12.5515 73.2071 13.0419 73.4309 13.4715C73.6547 13.8919 73.9591 14.2188 74.344 14.4523C74.7289 14.6858 75.1586 14.8026 75.6331 14.8026Z" fill="#F0F1F2"/>
<path d="M82.2489 7.09654H86.6935C87.723 7.09654 88.636 7.29737 89.4328 7.69902C90.2295 8.10067 90.8471 8.67045 91.2858 9.40836C91.7244 10.1463 91.9437 11.0103 91.9437 12.0004C91.9437 12.9905 91.7244 13.8545 91.2858 14.5924C90.8471 15.3303 90.2295 15.9001 89.4328 16.3018C88.636 16.7034 87.723 16.9042 86.6935 16.9042H82.2489V7.09654ZM86.5861 14.6905C87.3917 14.6905 88.0363 14.4523 88.5197 13.9759C89.012 13.4996 89.2582 12.841 89.2582 12.0004C89.2582 11.1597 89.012 10.5012 88.5197 10.0248C88.0363 9.54847 87.3917 9.31028 86.5861 9.31028H84.9076V14.6905H86.5861Z" fill="#F0F1F2"/>
<path d="M100.889 14.7606V16.9042H93.3425V7.09654H100.714V9.24023H95.9743V10.8935H100.15V12.9671H95.9743V14.7606H100.889Z" fill="#F0F1F2"/>
</svg>
