<svg width="20" height="20" viewBox="0 0 20 20" fill="none" xmlns="http://www.w3.org/2000/svg">
<rect width="20" height="20" rx="5" fill="#555963"/>
<rect x="2" y="2" width="16" height="16" rx="5" fill="#555963"/>
<g clip-path="url(#clip0_1747_8221)">
<path d="M7.69003 14.9902C7.33724 14.9915 6.98767 14.9232 6.66136 14.7891C6.33506 14.655 6.03843 14.4578 5.78851 14.2088C5.53859 13.9598 5.34029 13.6639 5.20498 13.3381C5.06967 13.0123 5.00003 12.663 5.00003 12.3102C4.99837 11.9568 5.06741 11.6067 5.20308 11.2804C5.33875 10.9541 5.53831 10.6582 5.79003 10.4102L6.15003 10.0402C6.24518 9.94796 6.3725 9.89637 6.50503 9.89637C6.63755 9.89637 6.76488 9.94796 6.86003 10.0402C6.90689 10.0867 6.94409 10.142 6.96947 10.2029C6.99486 10.2638 7.00793 10.3292 7.00793 10.3952C7.00793 10.4612 6.99486 10.5266 6.96947 10.5875C6.94409 10.6484 6.90689 10.7037 6.86003 10.7502L6.50003 11.1102C6.18096 11.4282 6.00113 11.8598 6.00003 12.3102C6.00578 12.7509 6.1855 13.1715 6.50003 13.4802C6.81696 13.7971 7.24682 13.9752 7.69503 13.9752C8.14324 13.9752 8.57309 13.7971 8.89003 13.4802L10.51 11.8502C10.6666 11.6941 10.7909 11.5087 10.8757 11.3045C10.9605 11.1003 11.0042 10.8813 11.0042 10.6602C11.0042 10.4391 10.9605 10.2202 10.8757 10.0159C10.7909 9.81174 10.6666 9.62629 10.51 9.47021C10.4178 9.37506 10.3662 9.24773 10.3662 9.1152C10.3662 8.98268 10.4178 8.85535 10.51 8.7602C10.5565 8.71334 10.6118 8.67614 10.6727 8.65076C10.7337 8.62538 10.799 8.6123 10.865 8.6123C10.931 8.6123 10.9964 8.62538 11.0573 8.65076C11.1182 8.67614 11.1735 8.71334 11.22 8.7602C11.7232 9.2645 12.0058 9.94781 12.0058 10.6602C12.0058 11.3726 11.7232 12.0559 11.22 12.5602L9.59003 14.1902C9.34182 14.4424 9.04613 14.6429 8.72003 14.7802C8.39392 14.9175 8.04386 14.9889 7.69003 14.9902Z" fill="#B3B8C0"/>
<path d="M8.8699 11.6297C8.8045 11.6293 8.73984 11.6158 8.67973 11.5901C8.61962 11.5643 8.56527 11.5268 8.5199 11.4797C8.26955 11.2306 8.07089 10.9346 7.93533 10.6085C7.79976 10.2824 7.72998 9.93281 7.72998 9.57968C7.72998 9.22656 7.79976 8.87692 7.93533 8.55085C8.07089 8.22479 8.26955 7.92873 8.5199 7.67969L10.4099 5.77968C10.9151 5.27577 11.5999 4.99321 12.3134 4.99414C13.027 4.99508 13.711 5.27945 14.2149 5.78469C14.7188 6.28992 15.0014 6.97464 15.0004 7.68822C14.9995 8.4018 14.7151 9.08577 14.2099 9.58969L13.5799 10.2197C13.5334 10.2666 13.4781 10.3037 13.4172 10.3291C13.3563 10.3545 13.2909 10.3676 13.2249 10.3676C13.1589 10.3676 13.0935 10.3545 13.0326 10.3291C12.9717 10.3037 12.9164 10.2666 12.8699 10.2197C12.7783 10.1262 12.727 10.0006 12.727 9.86968C12.727 9.73881 12.7783 9.61315 12.8699 9.51969L13.5099 8.87969C13.8244 8.56147 14.0008 8.1321 14.0008 7.68469C14.0008 7.23728 13.8244 6.8079 13.5099 6.48968C13.3533 6.32908 13.1663 6.20127 12.9597 6.1137C12.7532 6.02613 12.5313 5.98055 12.307 5.97962C12.0827 5.97869 11.8604 6.02242 11.6532 6.10828C11.4459 6.19413 11.2578 6.32039 11.0999 6.47969L9.2299 8.37969C8.91083 8.69765 8.731 9.12924 8.7299 9.57968C8.73012 9.80129 8.77444 10.0206 8.86028 10.2249C8.94612 10.4292 9.07177 10.6144 9.2299 10.7697C9.32215 10.8648 9.37374 10.9922 9.37374 11.1247C9.37374 11.2572 9.32215 11.3845 9.2299 11.4797C9.13451 11.5754 9.00503 11.6294 8.8699 11.6297Z" fill="#B3B8C0"/>
</g>
<defs>
<clipPath id="clip0_1747_8221">
<rect width="10" height="10" fill="white" transform="translate(5 5)"/>
</clipPath>
</defs>
</svg>
