<svg width="24" height="24" viewBox="0 0 24 24" fill="none" xmlns="http://www.w3.org/2000/svg">
<path d="M8.38 8C8.56636 7.9987 8.74938 8.04951 8.90841 8.14669C9.06743 8.24388 9.19614 8.38356 9.28 8.55L10 10H18V5C18 4.73478 17.8946 4.48043 17.7071 4.29289C17.5196 4.10536 17.2652 4 17 4H7C6.73478 4 6.48043 4.10536 6.29289 4.29289C6.10536 4.48043 6 4.73478 6 5V8H8.38Z" fill="#F6F7F8"/>
<path d="M10 10L9.28 8.55002C9.19614 8.38359 9.06743 8.2439 8.90841 8.14672C8.74938 8.04954 8.56636 7.99873 8.38 8.00002H5C4.73478 8.00002 4.48043 8.10538 4.29289 8.29292C4.10536 8.48045 4 8.73481 4 9.00002V19C4 19.2652 4.10536 19.5196 4.29289 19.7071C4.48043 19.8947 4.73478 20 5 20H19C19.2652 20 19.5196 19.8947 19.7071 19.7071C19.8946 19.5196 20 19.2652 20 19V11C20 10.7348 19.8946 10.4805 19.7071 10.2929C19.5196 10.1054 19.2652 10 19 10H10Z" fill="#0BCEA5"/>
</svg>
