<svg width="100" height="24" viewBox="0 0 100 24" fill="none" xmlns="http://www.w3.org/2000/svg">
<path d="M31.1113 7.39635H33.77V15.0043H38.2549V17.204H31.1113V7.39635Z" fill="#E8EBED"/>
<path d="M45.7094 15.2985H41.7348L40.9963 17.204H38.2839L42.4331 7.39635H45.0515L49.2141 17.204H46.448L45.7094 15.2985ZM44.9306 13.2529L43.7221 10.1145L42.5136 13.2529H44.9306Z" fill="#E8EBED"/>
<path d="M57.1919 12.09C57.729 12.2862 58.1497 12.5944 58.4541 13.0148C58.7585 13.4257 58.9106 13.9255 58.9106 14.5139C58.9106 15.3733 58.5794 16.0365 57.917 16.5035C57.2546 16.9705 56.2967 17.204 55.0435 17.204H49.9678V7.39635H54.7749C55.9744 7.39635 56.8875 7.62987 57.5142 8.0969C58.1408 8.55459 58.4541 9.17574 58.4541 9.96036C58.4541 10.4274 58.3422 10.8477 58.1184 11.2213C57.9036 11.5856 57.5947 11.8752 57.1919 12.09ZM52.5996 9.39992V11.2914H54.4258C55.321 11.2914 55.7686 10.9738 55.7686 10.3387C55.7686 9.71283 55.321 9.39992 54.4258 9.39992H52.5996ZM54.8286 15.2005C55.7596 15.2005 56.2251 14.8689 56.2251 14.2057C56.2251 13.5425 55.7596 13.2109 54.8286 13.2109H52.5996V15.2005H54.8286Z" fill="#E8EBED"/>
<path d="M64.974 17.4002C63.9893 17.4002 63.103 17.1854 62.3153 16.7557C61.5365 16.3167 60.9233 15.7095 60.4757 14.9343C60.0281 14.159 59.8043 13.281 59.8043 12.3002C59.8043 11.3194 60.0281 10.4414 60.4757 9.66613C60.9233 8.89085 61.5365 8.28838 62.3153 7.85871C63.103 7.4197 63.9893 7.2002 64.974 7.2002C65.8333 7.2002 66.6077 7.35899 67.297 7.67657C67.9863 7.99415 68.5592 8.45184 69.0157 9.04965L67.3238 10.6469C66.7151 9.88096 65.9766 9.498 65.1082 9.498C64.598 9.498 64.1415 9.61476 63.7386 9.84827C63.3447 10.0818 63.0359 10.4134 62.8121 10.8431C62.5973 11.2634 62.4899 11.7491 62.4899 12.3002C62.4899 12.8513 62.5973 13.3417 62.8121 13.7713C63.0359 14.1917 63.3447 14.5186 63.7386 14.7521C64.1415 14.9856 64.598 15.1024 65.1082 15.1024C65.9766 15.1024 66.7151 14.7194 67.3238 13.9535L69.0157 15.5507C68.5592 16.1485 67.9863 16.6062 67.297 16.9238C66.6077 17.2414 65.8333 17.4002 64.974 17.4002Z" fill="#E8EBED"/>
<path d="M74.7444 17.4002C73.7508 17.4002 72.8556 17.1807 72.0589 16.7417C71.2711 16.3027 70.649 15.6955 70.1924 14.9203C69.7448 14.145 69.521 13.2716 69.521 12.3002C69.521 11.3288 69.7448 10.4554 70.1924 9.68014C70.649 8.90487 71.2711 8.29772 72.0589 7.85871C72.8556 7.4197 73.7508 7.2002 74.7444 7.2002C75.7381 7.2002 76.6288 7.4197 77.4165 7.85871C78.2132 8.29772 78.8354 8.90487 79.283 9.68014C79.7395 10.4554 79.9678 11.3288 79.9678 12.3002C79.9678 13.2716 79.7395 14.145 79.283 14.9203C78.8354 15.6955 78.2132 16.3027 77.4165 16.7417C76.6288 17.1807 75.7381 17.4002 74.7444 17.4002ZM74.7444 15.1024C75.2188 15.1024 75.6485 14.9856 76.0335 14.7521C76.4184 14.5186 76.7227 14.1917 76.9465 13.7713C77.1703 13.3417 77.2822 12.8513 77.2822 12.3002C77.2822 11.7491 77.1703 11.2634 76.9465 10.8431C76.7227 10.4134 76.4184 10.0818 76.0335 9.84827C75.6485 9.61476 75.2188 9.498 74.7444 9.498C74.27 9.498 73.8403 9.61476 73.4553 9.84827C73.0704 10.0818 72.7661 10.4134 72.5423 10.8431C72.3185 11.2634 72.2066 11.7491 72.2066 12.3002C72.2066 12.8513 72.3185 13.3417 72.5423 13.7713C72.7661 14.1917 73.0704 14.5186 73.4553 14.7521C73.8403 14.9856 74.27 15.1024 74.7444 15.1024Z" fill="#E8EBED"/>
<path d="M81.3603 7.39635H85.8048C86.8343 7.39635 87.7474 7.59717 88.5441 7.99882C89.3408 8.40047 89.9585 8.97025 90.3971 9.70816C90.8357 10.4461 91.0551 11.3101 91.0551 12.3002C91.0551 13.2903 90.8357 14.1543 90.3971 14.8922C89.9585 15.6301 89.3408 16.1999 88.5441 16.6016C87.7474 17.0032 86.8343 17.204 85.8048 17.204H81.3603V7.39635ZM85.6974 14.9903C86.5031 14.9903 87.1476 14.7521 87.631 14.2757C88.1233 13.7994 88.3695 13.1409 88.3695 12.3002C88.3695 11.4595 88.1233 10.801 87.631 10.3246C87.1476 9.84827 86.5031 9.61009 85.6974 9.61009H84.019V14.9903H85.6974Z" fill="#E8EBED"/>
<path d="M100 15.0604V17.204H92.4538V7.39635H99.8257V9.54003H95.0857V11.1933H99.2617V13.267H95.0857V15.0604H100Z" fill="#E8EBED"/>
<g clip-path="url(#clip0_1180_2184)">
<rect width="22.2222" height="22.2222" rx="6.66667" fill="#0BCEA5"/>
<path d="M7.77764 18.0002C9.00494 18.0002 9.99986 16.9257 9.99986 15.6002C9.99986 14.2747 9.00494 13.2002 7.77764 13.2002C6.55034 13.2002 5.55542 14.2747 5.55542 15.6002C5.55542 16.9257 6.55034 18.0002 7.77764 18.0002Z" fill="white"/>
<path d="M14.4444 18.0002C15.6717 18.0002 16.6666 16.9257 16.6666 15.6002C16.6666 14.2747 15.6717 13.2002 14.4444 13.2002C13.2171 13.2002 12.2222 14.2747 12.2222 15.6002C12.2222 16.9257 13.2171 18.0002 14.4444 18.0002Z" fill="white"/>
<path d="M7.77764 10.8C9.00494 10.8 9.99986 9.72548 9.99986 8.4C9.99986 7.07452 9.00494 6 7.77764 6C6.55034 6 5.55542 7.07452 5.55542 8.4C5.55542 9.72548 6.55034 10.8 7.77764 10.8Z" fill="white"/>
</g>
<defs>
<clipPath id="clip0_1180_2184">
<rect width="22.2222" height="24" fill="white"/>
</clipPath>
</defs>
</svg>
